<mxfile host="Electron" agent="Mozilla/5.0 (Windows NT 10.0; Win64; x64) AppleWebKit/537.36 (KHTML, like Gecko) draw.io/26.0.7 Chrome/128.0.6613.186 Electron/32.2.5 Safari/537.36" version="26.0.7">
  <diagram name="Page-1" id="17mFAMqHkhYqHgXRSX_h">
    <mxGraphModel dx="2062" dy="1900" grid="1" gridSize="10" guides="1" tooltips="1" connect="1" arrows="1" fold="1" page="1" pageScale="1" pageWidth="827" pageHeight="1169" math="0" shadow="0">
      <root>
        <mxCell id="0" />
        <mxCell id="1" parent="0" />
        <mxCell id="I-YVIYov0mqiFwgNTY5H-6" value="users" style="swimlane;fontStyle=0;childLayout=stackLayout;horizontal=1;startSize=30;horizontalStack=0;resizeParent=1;resizeParentMax=0;resizeLast=0;collapsible=1;marginBottom=0;whiteSpace=wrap;html=1;" parent="1" vertex="1">
          <mxGeometry x="37" y="328" width="109" height="270" as="geometry" />
        </mxCell>
        <mxCell id="I-YVIYov0mqiFwgNTY5H-7" value="&lt;u&gt;user_id&lt;/u&gt;" style="text;strokeColor=none;fillColor=none;align=left;verticalAlign=middle;spacingLeft=4;spacingRight=4;overflow=hidden;points=[[0,0.5],[1,0.5]];portConstraint=eastwest;rotatable=0;whiteSpace=wrap;html=1;" parent="I-YVIYov0mqiFwgNTY5H-6" vertex="1">
          <mxGeometry y="30" width="109" height="30" as="geometry" />
        </mxCell>
        <mxCell id="I-YVIYov0mqiFwgNTY5H-8" value="name" style="text;strokeColor=none;fillColor=none;align=left;verticalAlign=middle;spacingLeft=4;spacingRight=4;overflow=hidden;points=[[0,0.5],[1,0.5]];portConstraint=eastwest;rotatable=0;whiteSpace=wrap;html=1;" parent="I-YVIYov0mqiFwgNTY5H-6" vertex="1">
          <mxGeometry y="60" width="109" height="30" as="geometry" />
        </mxCell>
        <mxCell id="I-YVIYov0mqiFwgNTY5H-10" value="firstname" style="text;strokeColor=none;fillColor=none;align=left;verticalAlign=middle;spacingLeft=4;spacingRight=4;overflow=hidden;points=[[0,0.5],[1,0.5]];portConstraint=eastwest;rotatable=0;whiteSpace=wrap;html=1;" parent="I-YVIYov0mqiFwgNTY5H-6" vertex="1">
          <mxGeometry y="90" width="109" height="30" as="geometry" />
        </mxCell>
        <mxCell id="I-YVIYov0mqiFwgNTY5H-11" value="email" style="text;strokeColor=none;fillColor=none;align=left;verticalAlign=middle;spacingLeft=4;spacingRight=4;overflow=hidden;points=[[0,0.5],[1,0.5]];portConstraint=eastwest;rotatable=0;whiteSpace=wrap;html=1;" parent="I-YVIYov0mqiFwgNTY5H-6" vertex="1">
          <mxGeometry y="120" width="109" height="30" as="geometry" />
        </mxCell>
        <mxCell id="I-YVIYov0mqiFwgNTY5H-12" value="phone" style="text;strokeColor=none;fillColor=none;align=left;verticalAlign=middle;spacingLeft=4;spacingRight=4;overflow=hidden;points=[[0,0.5],[1,0.5]];portConstraint=eastwest;rotatable=0;whiteSpace=wrap;html=1;" parent="I-YVIYov0mqiFwgNTY5H-6" vertex="1">
          <mxGeometry y="150" width="109" height="30" as="geometry" />
        </mxCell>
        <mxCell id="I-YVIYov0mqiFwgNTY5H-13" value="password" style="text;strokeColor=none;fillColor=none;align=left;verticalAlign=middle;spacingLeft=4;spacingRight=4;overflow=hidden;points=[[0,0.5],[1,0.5]];portConstraint=eastwest;rotatable=0;whiteSpace=wrap;html=1;" parent="I-YVIYov0mqiFwgNTY5H-6" vertex="1">
          <mxGeometry y="180" width="109" height="30" as="geometry" />
        </mxCell>
        <mxCell id="I-YVIYov0mqiFwgNTY5H-14" value="profile_pic" style="text;strokeColor=none;fillColor=none;align=left;verticalAlign=middle;spacingLeft=4;spacingRight=4;overflow=hidden;points=[[0,0.5],[1,0.5]];portConstraint=eastwest;rotatable=0;whiteSpace=wrap;html=1;" parent="I-YVIYov0mqiFwgNTY5H-6" vertex="1">
          <mxGeometry y="210" width="109" height="30" as="geometry" />
        </mxCell>
        <mxCell id="3PyHB-Jvnuc6p9pBW0hO-1" value="registration_date" style="text;strokeColor=none;fillColor=none;align=left;verticalAlign=middle;spacingLeft=4;spacingRight=4;overflow=hidden;points=[[0,0.5],[1,0.5]];portConstraint=eastwest;rotatable=0;whiteSpace=wrap;html=1;" vertex="1" parent="I-YVIYov0mqiFwgNTY5H-6">
          <mxGeometry y="240" width="109" height="30" as="geometry" />
        </mxCell>
        <mxCell id="I-YVIYov0mqiFwgNTY5H-16" value="appointment" style="swimlane;fontStyle=0;childLayout=stackLayout;horizontal=1;startSize=30;horizontalStack=0;resizeParent=1;resizeParentMax=0;resizeLast=0;collapsible=1;marginBottom=0;whiteSpace=wrap;html=1;" parent="1" vertex="1">
          <mxGeometry x="478" y="339" width="111" height="240" as="geometry" />
        </mxCell>
        <mxCell id="I-YVIYov0mqiFwgNTY5H-17" value="&lt;u&gt;appointment_id&lt;/u&gt;" style="text;strokeColor=none;fillColor=none;align=left;verticalAlign=middle;spacingLeft=4;spacingRight=4;overflow=hidden;points=[[0,0.5],[1,0.5]];portConstraint=eastwest;rotatable=0;whiteSpace=wrap;html=1;" parent="I-YVIYov0mqiFwgNTY5H-16" vertex="1">
          <mxGeometry y="30" width="111" height="30" as="geometry" />
        </mxCell>
        <mxCell id="I-YVIYov0mqiFwgNTY5H-18" value="appoitment_date" style="text;strokeColor=none;fillColor=none;align=left;verticalAlign=middle;spacingLeft=4;spacingRight=4;overflow=hidden;points=[[0,0.5],[1,0.5]];portConstraint=eastwest;rotatable=0;whiteSpace=wrap;html=1;" parent="I-YVIYov0mqiFwgNTY5H-16" vertex="1">
          <mxGeometry y="60" width="111" height="30" as="geometry" />
        </mxCell>
        <mxCell id="0xoD8iWhgh-MH3FHFKx6-23" value="time" style="text;strokeColor=none;fillColor=none;align=left;verticalAlign=middle;spacingLeft=4;spacingRight=4;overflow=hidden;points=[[0,0.5],[1,0.5]];portConstraint=eastwest;rotatable=0;whiteSpace=wrap;html=1;" parent="I-YVIYov0mqiFwgNTY5H-16" vertex="1">
          <mxGeometry y="90" width="111" height="30" as="geometry" />
        </mxCell>
        <mxCell id="I-YVIYov0mqiFwgNTY5H-21" value="status" style="text;strokeColor=none;fillColor=none;align=left;verticalAlign=middle;spacingLeft=4;spacingRight=4;overflow=hidden;points=[[0,0.5],[1,0.5]];portConstraint=eastwest;rotatable=0;whiteSpace=wrap;html=1;" parent="I-YVIYov0mqiFwgNTY5H-16" vertex="1">
          <mxGeometry y="120" width="111" height="30" as="geometry" />
        </mxCell>
        <mxCell id="I-YVIYov0mqiFwgNTY5H-22" value="creatioon_date" style="text;strokeColor=none;fillColor=none;align=left;verticalAlign=middle;spacingLeft=4;spacingRight=4;overflow=hidden;points=[[0,0.5],[1,0.5]];portConstraint=eastwest;rotatable=0;whiteSpace=wrap;html=1;" parent="I-YVIYov0mqiFwgNTY5H-16" vertex="1">
          <mxGeometry y="150" width="111" height="30" as="geometry" />
        </mxCell>
        <mxCell id="I-YVIYov0mqiFwgNTY5H-23" value="exam_id" style="text;strokeColor=none;fillColor=none;align=left;verticalAlign=middle;spacingLeft=4;spacingRight=4;overflow=hidden;points=[[0,0.5],[1,0.5]];portConstraint=eastwest;rotatable=0;whiteSpace=wrap;html=1;" parent="I-YVIYov0mqiFwgNTY5H-16" vertex="1">
          <mxGeometry y="180" width="111" height="30" as="geometry" />
        </mxCell>
        <mxCell id="I-YVIYov0mqiFwgNTY5H-34" value="user_id" style="text;strokeColor=none;fillColor=none;align=left;verticalAlign=middle;spacingLeft=4;spacingRight=4;overflow=hidden;points=[[0,0.5],[1,0.5]];portConstraint=eastwest;rotatable=0;whiteSpace=wrap;html=1;" parent="I-YVIYov0mqiFwgNTY5H-16" vertex="1">
          <mxGeometry y="210" width="111" height="30" as="geometry" />
        </mxCell>
        <mxCell id="I-YVIYov0mqiFwgNTY5H-63" style="edgeStyle=none;shape=connector;rounded=0;orthogonalLoop=1;jettySize=auto;html=1;entryX=0.5;entryY=0;entryDx=0;entryDy=0;strokeColor=default;align=center;verticalAlign=middle;fontFamily=Helvetica;fontSize=11;fontColor=default;labelBackgroundColor=default;startFill=0;endArrow=none;exitX=0.449;exitY=1.02;exitDx=0;exitDy=0;exitPerimeter=0;" parent="1" source="I-YVIYov0mqiFwgNTY5H-42" target="I-YVIYov0mqiFwgNTY5H-60" edge="1">
          <mxGeometry relative="1" as="geometry">
            <mxPoint x="534" y="95" as="sourcePoint" />
            <mxPoint x="534" y="212" as="targetPoint" />
          </mxGeometry>
        </mxCell>
        <mxCell id="I-YVIYov0mqiFwgNTY5H-24" value="test" style="swimlane;fontStyle=0;childLayout=stackLayout;horizontal=1;startSize=30;horizontalStack=0;resizeParent=1;resizeParentMax=0;resizeLast=0;collapsible=1;marginBottom=0;whiteSpace=wrap;html=1;" parent="1" vertex="1">
          <mxGeometry x="225" y="190" width="110" height="120" as="geometry" />
        </mxCell>
        <mxCell id="I-YVIYov0mqiFwgNTY5H-25" value="&lt;u&gt;test_id&lt;/u&gt;" style="text;strokeColor=none;fillColor=none;align=left;verticalAlign=middle;spacingLeft=4;spacingRight=4;overflow=hidden;points=[[0,0.5],[1,0.5]];portConstraint=eastwest;rotatable=0;whiteSpace=wrap;html=1;" parent="I-YVIYov0mqiFwgNTY5H-24" vertex="1">
          <mxGeometry y="30" width="110" height="30" as="geometry" />
        </mxCell>
        <mxCell id="I-YVIYov0mqiFwgNTY5H-28" value="name" style="text;strokeColor=none;fillColor=none;align=left;verticalAlign=middle;spacingLeft=4;spacingRight=4;overflow=hidden;points=[[0,0.5],[1,0.5]];portConstraint=eastwest;rotatable=0;whiteSpace=wrap;html=1;" parent="I-YVIYov0mqiFwgNTY5H-24" vertex="1">
          <mxGeometry y="60" width="110" height="30" as="geometry" />
        </mxCell>
        <mxCell id="MuHAzvLEoyTtRS0hfCip-12" value="exam_id" style="text;strokeColor=none;fillColor=none;align=left;verticalAlign=middle;spacingLeft=4;spacingRight=4;overflow=hidden;points=[[0,0.5],[1,0.5]];portConstraint=eastwest;rotatable=0;whiteSpace=wrap;html=1;" parent="I-YVIYov0mqiFwgNTY5H-24" vertex="1">
          <mxGeometry y="90" width="110" height="30" as="geometry" />
        </mxCell>
        <mxCell id="I-YVIYov0mqiFwgNTY5H-38" value="exam" style="swimlane;fontStyle=0;childLayout=stackLayout;horizontal=1;startSize=30;horizontalStack=0;resizeParent=1;resizeParentMax=0;resizeLast=0;collapsible=1;marginBottom=0;whiteSpace=wrap;html=1;fontFamily=Helvetica;fontSize=11;fontColor=default;labelBackgroundColor=default;" parent="1" vertex="1">
          <mxGeometry x="488" y="-2" width="103" height="90" as="geometry" />
        </mxCell>
        <mxCell id="I-YVIYov0mqiFwgNTY5H-39" value="&lt;u&gt;exam_id&lt;/u&gt;" style="text;strokeColor=none;fillColor=none;align=left;verticalAlign=middle;spacingLeft=4;spacingRight=4;overflow=hidden;points=[[0,0.5],[1,0.5]];portConstraint=eastwest;rotatable=0;whiteSpace=wrap;html=1;fontFamily=Helvetica;fontSize=11;fontColor=default;labelBackgroundColor=default;" parent="I-YVIYov0mqiFwgNTY5H-38" vertex="1">
          <mxGeometry y="30" width="103" height="30" as="geometry" />
        </mxCell>
        <mxCell id="I-YVIYov0mqiFwgNTY5H-42" value="name" style="text;strokeColor=none;fillColor=none;align=left;verticalAlign=middle;spacingLeft=4;spacingRight=4;overflow=hidden;points=[[0,0.5],[1,0.5]];portConstraint=eastwest;rotatable=0;whiteSpace=wrap;html=1;fontFamily=Helvetica;fontSize=11;fontColor=default;labelBackgroundColor=default;" parent="I-YVIYov0mqiFwgNTY5H-38" vertex="1">
          <mxGeometry y="60" width="103" height="30" as="geometry" />
        </mxCell>
        <mxCell id="I-YVIYov0mqiFwgNTY5H-45" value="contact" style="swimlane;fontStyle=0;childLayout=stackLayout;horizontal=1;startSize=30;horizontalStack=0;resizeParent=1;resizeParentMax=0;resizeLast=0;collapsible=1;marginBottom=0;whiteSpace=wrap;html=1;fontFamily=Helvetica;fontSize=11;fontColor=default;labelBackgroundColor=default;" parent="1" vertex="1">
          <mxGeometry x="-172" y="82" width="108" height="240" as="geometry" />
        </mxCell>
        <mxCell id="I-YVIYov0mqiFwgNTY5H-46" value="&lt;u&gt;contact_id&lt;/u&gt;" style="text;strokeColor=none;fillColor=none;align=left;verticalAlign=middle;spacingLeft=4;spacingRight=4;overflow=hidden;points=[[0,0.5],[1,0.5]];portConstraint=eastwest;rotatable=0;whiteSpace=wrap;html=1;fontFamily=Helvetica;fontSize=11;fontColor=default;labelBackgroundColor=default;" parent="I-YVIYov0mqiFwgNTY5H-45" vertex="1">
          <mxGeometry y="30" width="108" height="30" as="geometry" />
        </mxCell>
        <mxCell id="I-YVIYov0mqiFwgNTY5H-49" value="&lt;div&gt;&lt;span style=&quot;background-color: light-dark(#ffffff, var(--ge-dark-color, #121212)); color: light-dark(rgb(0, 0, 0), rgb(255, 255, 255));&quot;&gt;name&lt;/span&gt;&lt;br&gt;&lt;/div&gt;" style="text;strokeColor=none;fillColor=none;align=left;verticalAlign=middle;spacingLeft=4;spacingRight=4;overflow=hidden;points=[[0,0.5],[1,0.5]];portConstraint=eastwest;rotatable=0;whiteSpace=wrap;html=1;fontFamily=Helvetica;fontSize=11;fontColor=default;labelBackgroundColor=default;" parent="I-YVIYov0mqiFwgNTY5H-45" vertex="1">
          <mxGeometry y="60" width="108" height="30" as="geometry" />
        </mxCell>
        <mxCell id="I-YVIYov0mqiFwgNTY5H-50" value="email" style="text;strokeColor=none;fillColor=none;align=left;verticalAlign=middle;spacingLeft=4;spacingRight=4;overflow=hidden;points=[[0,0.5],[1,0.5]];portConstraint=eastwest;rotatable=0;whiteSpace=wrap;html=1;fontFamily=Helvetica;fontSize=11;fontColor=default;labelBackgroundColor=default;" parent="I-YVIYov0mqiFwgNTY5H-45" vertex="1">
          <mxGeometry y="90" width="108" height="30" as="geometry" />
        </mxCell>
        <mxCell id="I-YVIYov0mqiFwgNTY5H-51" value="subject" style="text;strokeColor=none;fillColor=none;align=left;verticalAlign=middle;spacingLeft=4;spacingRight=4;overflow=hidden;points=[[0,0.5],[1,0.5]];portConstraint=eastwest;rotatable=0;whiteSpace=wrap;html=1;fontFamily=Helvetica;fontSize=11;fontColor=default;labelBackgroundColor=default;" parent="I-YVIYov0mqiFwgNTY5H-45" vertex="1">
          <mxGeometry y="120" width="108" height="30" as="geometry" />
        </mxCell>
        <mxCell id="I-YVIYov0mqiFwgNTY5H-52" value="message" style="text;strokeColor=none;fillColor=none;align=left;verticalAlign=middle;spacingLeft=4;spacingRight=4;overflow=hidden;points=[[0,0.5],[1,0.5]];portConstraint=eastwest;rotatable=0;whiteSpace=wrap;html=1;fontFamily=Helvetica;fontSize=11;fontColor=default;labelBackgroundColor=default;" parent="I-YVIYov0mqiFwgNTY5H-45" vertex="1">
          <mxGeometry y="150" width="108" height="30" as="geometry" />
        </mxCell>
        <mxCell id="I-YVIYov0mqiFwgNTY5H-47" value="date" style="text;strokeColor=none;fillColor=none;align=left;verticalAlign=middle;spacingLeft=4;spacingRight=4;overflow=hidden;points=[[0,0.5],[1,0.5]];portConstraint=eastwest;rotatable=0;whiteSpace=wrap;html=1;fontFamily=Helvetica;fontSize=11;fontColor=default;labelBackgroundColor=default;" parent="I-YVIYov0mqiFwgNTY5H-45" vertex="1">
          <mxGeometry y="180" width="108" height="30" as="geometry" />
        </mxCell>
        <mxCell id="I-YVIYov0mqiFwgNTY5H-48" value="user_id" style="text;strokeColor=none;fillColor=none;align=left;verticalAlign=middle;spacingLeft=4;spacingRight=4;overflow=hidden;points=[[0,0.5],[1,0.5]];portConstraint=eastwest;rotatable=0;whiteSpace=wrap;html=1;fontFamily=Helvetica;fontSize=11;fontColor=default;labelBackgroundColor=default;" parent="I-YVIYov0mqiFwgNTY5H-45" vertex="1">
          <mxGeometry y="210" width="108" height="30" as="geometry" />
        </mxCell>
        <mxCell id="I-YVIYov0mqiFwgNTY5H-55" style="edgeStyle=none;shape=connector;rounded=0;orthogonalLoop=1;jettySize=auto;html=1;entryX=0;entryY=0.5;entryDx=0;entryDy=0;strokeColor=default;align=center;verticalAlign=middle;fontFamily=Helvetica;fontSize=11;fontColor=default;labelBackgroundColor=default;startFill=0;endArrow=none;" parent="1" source="I-YVIYov0mqiFwgNTY5H-54" edge="1">
          <mxGeometry relative="1" as="geometry">
            <mxPoint x="37" y="456" as="targetPoint" />
          </mxGeometry>
        </mxCell>
        <mxCell id="I-YVIYov0mqiFwgNTY5H-54" value="&lt;font style=&quot;font-size: 15px;&quot;&gt;Send&lt;/font&gt;" style="ellipse;whiteSpace=wrap;html=1;fontFamily=Helvetica;fontSize=11;fontColor=default;labelBackgroundColor=default;" parent="1" vertex="1">
          <mxGeometry x="-187" y="417" width="120" height="80" as="geometry" />
        </mxCell>
        <mxCell id="I-YVIYov0mqiFwgNTY5H-56" style="edgeStyle=none;shape=connector;rounded=0;orthogonalLoop=1;jettySize=auto;html=1;entryX=0.417;entryY=1.059;entryDx=0;entryDy=0;entryPerimeter=0;strokeColor=default;align=center;verticalAlign=middle;fontFamily=Helvetica;fontSize=11;fontColor=default;labelBackgroundColor=default;startFill=0;endArrow=none;" parent="1" source="I-YVIYov0mqiFwgNTY5H-54" target="I-YVIYov0mqiFwgNTY5H-48" edge="1">
          <mxGeometry relative="1" as="geometry" />
        </mxCell>
        <mxCell id="I-YVIYov0mqiFwgNTY5H-57" value="&lt;font style=&quot;font-size: 16px;&quot;&gt;Reserves&lt;/font&gt;" style="ellipse;whiteSpace=wrap;html=1;fontFamily=Helvetica;fontSize=11;fontColor=default;labelBackgroundColor=default;" parent="1" vertex="1">
          <mxGeometry x="256" y="418" width="120" height="80" as="geometry" />
        </mxCell>
        <mxCell id="I-YVIYov0mqiFwgNTY5H-58" style="edgeStyle=none;shape=connector;rounded=0;orthogonalLoop=1;jettySize=auto;html=1;entryX=-0.021;entryY=-0.021;entryDx=0;entryDy=0;entryPerimeter=0;strokeColor=default;align=center;verticalAlign=middle;fontFamily=Helvetica;fontSize=11;fontColor=default;labelBackgroundColor=default;startFill=0;endArrow=none;" parent="1" source="I-YVIYov0mqiFwgNTY5H-57" target="I-YVIYov0mqiFwgNTY5H-21" edge="1">
          <mxGeometry relative="1" as="geometry" />
        </mxCell>
        <mxCell id="I-YVIYov0mqiFwgNTY5H-59" style="edgeStyle=none;shape=connector;rounded=0;orthogonalLoop=1;jettySize=auto;html=1;entryX=0.986;entryY=0.351;entryDx=0;entryDy=0;entryPerimeter=0;strokeColor=default;align=center;verticalAlign=middle;fontFamily=Helvetica;fontSize=11;fontColor=default;labelBackgroundColor=default;startFill=0;endArrow=none;exitX=0;exitY=0.5;exitDx=0;exitDy=0;" parent="1" source="I-YVIYov0mqiFwgNTY5H-57" target="I-YVIYov0mqiFwgNTY5H-11" edge="1">
          <mxGeometry relative="1" as="geometry">
            <mxPoint x="312" y="458" as="sourcePoint" />
          </mxGeometry>
        </mxCell>
        <mxCell id="I-YVIYov0mqiFwgNTY5H-61" style="edgeStyle=none;shape=connector;rounded=0;orthogonalLoop=1;jettySize=auto;html=1;entryX=0.5;entryY=0;entryDx=0;entryDy=0;strokeColor=default;align=center;verticalAlign=middle;fontFamily=Helvetica;fontSize=11;fontColor=default;labelBackgroundColor=default;startFill=0;endArrow=none;" parent="1" source="I-YVIYov0mqiFwgNTY5H-60" target="I-YVIYov0mqiFwgNTY5H-16" edge="1">
          <mxGeometry relative="1" as="geometry" />
        </mxCell>
        <mxCell id="I-YVIYov0mqiFwgNTY5H-60" value="&lt;font style=&quot;font-size: 16px;&quot;&gt;Includes&lt;/font&gt;" style="ellipse;whiteSpace=wrap;html=1;fontFamily=Helvetica;fontSize=11;fontColor=default;labelBackgroundColor=default;" parent="1" vertex="1">
          <mxGeometry x="474" y="180" width="120" height="80" as="geometry" />
        </mxCell>
        <mxCell id="I-YVIYov0mqiFwgNTY5H-65" style="edgeStyle=none;shape=connector;rounded=0;orthogonalLoop=1;jettySize=auto;html=1;strokeColor=default;align=center;verticalAlign=middle;fontFamily=Helvetica;fontSize=11;fontColor=default;labelBackgroundColor=default;startFill=0;endArrow=none;" parent="1" source="I-YVIYov0mqiFwgNTY5H-64" target="I-YVIYov0mqiFwgNTY5H-24" edge="1">
          <mxGeometry relative="1" as="geometry" />
        </mxCell>
        <mxCell id="I-YVIYov0mqiFwgNTY5H-64" value="&lt;font style=&quot;font-size: 16px;&quot;&gt;Contains&lt;/font&gt;" style="ellipse;whiteSpace=wrap;html=1;fontFamily=Helvetica;fontSize=11;fontColor=default;labelBackgroundColor=default;" parent="1" vertex="1">
          <mxGeometry x="219.5" y="18" width="121" height="80" as="geometry" />
        </mxCell>
        <mxCell id="I-YVIYov0mqiFwgNTY5H-66" style="edgeStyle=none;shape=connector;rounded=0;orthogonalLoop=1;jettySize=auto;html=1;strokeColor=default;align=center;verticalAlign=middle;fontFamily=Helvetica;fontSize=11;fontColor=default;labelBackgroundColor=default;startFill=0;endArrow=none;entryX=-0.002;entryY=0.006;entryDx=0;entryDy=0;entryPerimeter=0;" parent="1" source="I-YVIYov0mqiFwgNTY5H-64" target="I-YVIYov0mqiFwgNTY5H-42" edge="1">
          <mxGeometry relative="1" as="geometry">
            <mxPoint x="512" y="56" as="targetPoint" />
          </mxGeometry>
        </mxCell>
        <mxCell id="I-YVIYov0mqiFwgNTY5H-67" value="&lt;font style=&quot;font-size: 16px;&quot;&gt;0, n&lt;/font&gt;" style="text;html=1;align=center;verticalAlign=middle;resizable=0;points=[];autosize=1;strokeColor=none;fillColor=none;fontFamily=Helvetica;fontSize=11;fontColor=default;labelBackgroundColor=default;" parent="1" vertex="1">
          <mxGeometry x="-8" y="421" width="50" height="30" as="geometry" />
        </mxCell>
        <mxCell id="I-YVIYov0mqiFwgNTY5H-68" value="&lt;font style=&quot;font-size: 16px;&quot;&gt;0, 1&lt;/font&gt;" style="text;html=1;align=center;verticalAlign=middle;resizable=0;points=[];autosize=1;strokeColor=none;fillColor=none;fontFamily=Helvetica;fontSize=11;fontColor=default;labelBackgroundColor=default;" parent="1" vertex="1">
          <mxGeometry x="-131" y="322" width="50" height="30" as="geometry" />
        </mxCell>
        <mxCell id="I-YVIYov0mqiFwgNTY5H-69" value="&lt;span style=&quot;font-size: 16px;&quot;&gt;0, n&lt;/span&gt;" style="text;html=1;align=center;verticalAlign=middle;resizable=0;points=[];autosize=1;strokeColor=none;fillColor=none;fontFamily=Helvetica;fontSize=11;fontColor=default;labelBackgroundColor=default;" parent="1" vertex="1">
          <mxGeometry x="146" y="426" width="50" height="30" as="geometry" />
        </mxCell>
        <mxCell id="I-YVIYov0mqiFwgNTY5H-70" value="&lt;font style=&quot;font-size: 16px;&quot;&gt;0, 1&lt;/font&gt;" style="text;html=1;align=center;verticalAlign=middle;resizable=0;points=[];autosize=1;strokeColor=none;fillColor=none;fontFamily=Helvetica;fontSize=11;fontColor=default;labelBackgroundColor=default;" parent="1" vertex="1">
          <mxGeometry x="419" y="426" width="50" height="30" as="geometry" />
        </mxCell>
        <mxCell id="MuHAzvLEoyTtRS0hfCip-6" value="&lt;font style=&quot;font-size: 16px;&quot;&gt;1 , n&lt;/font&gt;" style="text;html=1;align=center;verticalAlign=middle;resizable=0;points=[];autosize=1;strokeColor=none;fillColor=none;" parent="1" vertex="1">
          <mxGeometry x="534" y="304" width="50" height="30" as="geometry" />
        </mxCell>
        <mxCell id="MuHAzvLEoyTtRS0hfCip-7" value="&lt;span style=&quot;font-size: 16px;&quot;&gt;1, 1&lt;/span&gt;" style="text;html=1;align=center;verticalAlign=middle;resizable=0;points=[];autosize=1;strokeColor=none;fillColor=none;fontFamily=Helvetica;fontSize=11;fontColor=default;labelBackgroundColor=default;" parent="1" vertex="1">
          <mxGeometry x="534" y="85" width="50" height="30" as="geometry" />
        </mxCell>
        <mxCell id="MuHAzvLEoyTtRS0hfCip-8" value="&lt;span style=&quot;font-size: 16px;&quot;&gt;1 , n&lt;/span&gt;" style="text;html=1;align=center;verticalAlign=middle;resizable=0;points=[];autosize=1;strokeColor=none;fillColor=none;fontFamily=Helvetica;fontSize=11;fontColor=default;labelBackgroundColor=default;" parent="1" vertex="1">
          <mxGeometry x="438" y="58" width="50" height="30" as="geometry" />
        </mxCell>
        <mxCell id="MuHAzvLEoyTtRS0hfCip-9" value="&lt;font style=&quot;font-size: 16px;&quot;&gt;1 , 1&lt;/font&gt;" style="text;html=1;align=center;verticalAlign=middle;resizable=0;points=[];autosize=1;strokeColor=none;fillColor=none;" parent="1" vertex="1">
          <mxGeometry x="229.5" y="160" width="50" height="30" as="geometry" />
        </mxCell>
      </root>
    </mxGraphModel>
  </diagram>
</mxfile>
